<?xml version="1.0" encoding="UTF-8" standalone="no"?>
<svg xmlns:dc="http://purl.org/dc/elements/1.1/" 
  xmlns:cc="http://creativecommons.org/ns#" 
  xmlns:rdf="http://www.w3.org/1999/02/22-rdf-syntax-ns#" 
  xmlns:svg="http://www.w3.org/2000/svg" 
  xmlns="http://www.w3.org/2000/svg" viewBox="90 50 110 110" height="288" width="288" xml:space="preserve" id="svg2" version="1.1">
  <metadata id="metadata8">
    <rdf:RDF>
      <cc:Work rdf:about="">
        <dc:format>image/svg+xml</dc:format>
        <dc:type rdf:resource="http://purl.org/dc/dcmitype/StillImage" />
</cc:Work>
    </rdf:RDF>
  </metadata>
  <defs id="defs6" /><!--
  <rect x="90" y="50" width="110" height="110" fill="none" stroke="black" />-->
  <g transform="matrix(1.3333333,0,0,-1.3333333,0,288)" id="g10">
    <g transform="scale(0.1)" id="g12">
      <path id="path14" style="fill:white;fill-opacity:1;fill-rule:nonzero;stroke:none" d="M 1268.13,1503.03 H 910.465 c 1.504,-5.68 2.34,-11.7 2.34,-17.89 0,-6.18 -0.836,-12.2 -2.399,-17.94 h 357.774 c -1.55,5.74 -2.39,11.76 -2.39,17.94 0,6.19 0.84,12.21 2.34,17.89 z m -117.53,167.3 c 4.52,9.08 7.13,19.34 7.13,30.21 0,11.03 -2.67,21.51 -7.35,30.7 -11.09,22.96 -34.67,38.56 -61.92,38.56 -38.28,0 -69.22,-30.98 -69.22,-69.26 0,-10.87 2.57,-21.18 7.03,-30.38 L 881.539,1543.1 c 10.086,-6.63 18.332,-15.88 23.852,-26.75 l 144.279,126.67 c 11.04,-7.52 24.41,-11.92 38.79,-11.92 14.43,0 27.75,4.4 38.79,11.97 l 145.46,-127.72 c 5.35,10.98 13.48,20.34 23.45,27.19 l -145.56,127.79" />
      <path id="path16" style="fill:white;fill-opacity:1;fill-rule:nonzero;stroke:none" d="m 1404.44,1060.32 c 0,-38.29 -31.03,-69.332 -69.32,-69.332 h -0.78 c -27.2,0 -50.49,15.832 -61.86,38.572 h -122.22 c 0.06,0.05 0.12,0.11 0.12,0.17 4.68,9.19 7.35,19.66 7.35,30.7 0,11.03 -2.61,21.4 -7.3,30.6 h 122.05 c 6.86,13.81 18.12,24.96 31.93,31.7 v 300.33 c -17.66,8.75 -31.04,24.74 -36.23,44.14 -1.55,5.74 -2.39,11.76 -2.39,17.94 0,6.19 0.84,12.21 2.34,17.89 1.12,4.29 2.68,8.42 4.58,12.32 5.35,10.98 13.48,20.34 23.45,27.19 11.1,7.53 24.52,11.93 38.96,11.93 38.29,0 69.32,-31.04 69.32,-69.33 0,-27.25 -15.71,-50.71 -38.56,-62.08 V 1122.4 c 22.85,-11.37 38.56,-34.83 38.56,-62.08" />
      <path id="path18" style="fill:white;fill-opacity:1;fill-rule:nonzero;stroke:none" d="m 1157.72,1060.36 c 0,-10.96 -2.66,-21.44 -7.36,-30.68 0,0 0,0 -0.15,-0.16 -10.96,-22.86 -34.59,-38.508 -61.68,-38.508 -27.24,0 -50.72,15.648 -62.15,38.508 H 905.527 c -10.644,-21.44 -32.093,-36.469 -57.136,-38.36 h -3.293 c -0.625,-0.148 -1.094,-0.148 -1.563,-0.148 h -0.937 c -38.2,0 -69.352,30.988 -69.352,69.348 0,27.55 16.125,51.19 39.449,62.46 v 300.25 c -22.855,11.43 -38.511,34.76 -38.511,62 0,38.35 30.996,69.35 69.351,69.35 13.93,0 27.078,-4.07 38.043,-11.28 10.02,-6.72 18.317,-15.96 23.793,-26.76 2.192,-4.23 3.91,-8.61 5.164,-13.31 1.406,-5.79 2.195,-11.74 2.195,-18 0,-6.11 -0.789,-12.06 -2.347,-17.85 -5.168,-19.41 -18.473,-35.38 -36.164,-44.15 v -300.72 c 13.617,-6.73 24.574,-17.69 31.308,-31.31 h 120.853 c 11.27,23.01 34.75,38.67 62.15,38.67 27.24,0 50.72,-15.66 61.83,-38.51 v -0.16 c 4.7,-9.23 7.36,-19.57 7.36,-30.68" />
    <!--
      <path id="path14" style="fill:#495c9e;fill-opacity:1;fill-rule:nonzero;stroke:none" d="M 1268.13,1503.03 H 910.465 c 1.504,-5.68 2.34,-11.7 2.34,-17.89 0,-6.18 -0.836,-12.2 -2.399,-17.94 h 357.774 c -1.55,5.74 -2.39,11.76 -2.39,17.94 0,6.19 0.84,12.21 2.34,17.89 z m -117.53,167.3 c 4.52,9.08 7.13,19.34 7.13,30.21 0,11.03 -2.67,21.51 -7.35,30.7 -11.09,22.96 -34.67,38.56 -61.92,38.56 -38.28,0 -69.22,-30.98 -69.22,-69.26 0,-10.87 2.57,-21.18 7.03,-30.38 L 881.539,1543.1 c 10.086,-6.63 18.332,-15.88 23.852,-26.75 l 144.279,126.67 c 11.04,-7.52 24.41,-11.92 38.79,-11.92 14.43,0 27.75,4.4 38.79,11.97 l 145.46,-127.72 c 5.35,10.98 13.48,20.34 23.45,27.19 l -145.56,127.79" />
      <path id="path16" style="fill:#399c89;fill-opacity:1;fill-rule:nonzero;stroke:none" d="m 1404.44,1060.32 c 0,-38.29 -31.03,-69.332 -69.32,-69.332 h -0.78 c -27.2,0 -50.49,15.832 -61.86,38.572 h -122.22 c 0.06,0.05 0.12,0.11 0.12,0.17 4.68,9.19 7.35,19.66 7.35,30.7 0,11.03 -2.61,21.4 -7.3,30.6 h 122.05 c 6.86,13.81 18.12,24.96 31.93,31.7 v 300.33 c -17.66,8.75 -31.04,24.74 -36.23,44.14 -1.55,5.74 -2.39,11.76 -2.39,17.94 0,6.19 0.84,12.21 2.34,17.89 1.12,4.29 2.68,8.42 4.58,12.32 5.35,10.98 13.48,20.34 23.45,27.19 11.1,7.53 24.52,11.93 38.96,11.93 38.29,0 69.32,-31.04 69.32,-69.33 0,-27.25 -15.71,-50.71 -38.56,-62.08 V 1122.4 c 22.85,-11.37 38.56,-34.83 38.56,-62.08" />
      <path id="path18" style="fill:#1d6b74;fill-opacity:1;fill-rule:nonzero;stroke:none" d="m 1157.72,1060.36 c 0,-10.96 -2.66,-21.44 -7.36,-30.68 0,0 0,0 -0.15,-0.16 -10.96,-22.86 -34.59,-38.508 -61.68,-38.508 -27.24,0 -50.72,15.648 -62.15,38.508 H 905.527 c -10.644,-21.44 -32.093,-36.469 -57.136,-38.36 h -3.293 c -0.625,-0.148 -1.094,-0.148 -1.563,-0.148 h -0.937 c -38.2,0 -69.352,30.988 -69.352,69.348 0,27.55 16.125,51.19 39.449,62.46 v 300.25 c -22.855,11.43 -38.511,34.76 -38.511,62 0,38.35 30.996,69.35 69.351,69.35 13.93,0 27.078,-4.07 38.043,-11.28 10.02,-6.72 18.317,-15.96 23.793,-26.76 2.192,-4.23 3.91,-8.61 5.164,-13.31 1.406,-5.79 2.195,-11.74 2.195,-18 0,-6.11 -0.789,-12.06 -2.347,-17.85 -5.168,-19.41 -18.473,-35.38 -36.164,-44.15 v -300.72 c 13.617,-6.73 24.574,-17.69 31.308,-31.31 h 120.853 c 11.27,23.01 34.75,38.67 62.15,38.67 27.24,0 50.72,-15.66 61.83,-38.51 v -0.16 c 4.7,-9.23 7.36,-19.57 7.36,-30.68" />
      -->
<!--      <path id="path20" style="fill:#18595f;fill-opacity:1;fill-rule:nonzero;stroke:none" d="m 472.68,692.281 h 86.379 l 4.062,20.957 h 18.774 l 2.187,-45.058 H 420.73 v 17.519 l 25.047,4.391 v 156.449 l -25.047,4.402 v 17.52 h 76.989 v -17.52 L 472.68,846.539 V 692.281" />
      <path id="path22" style="fill:#18595f;fill-opacity:1;fill-rule:nonzero;stroke:none" d="m 726.238,752.039 c 0.157,1.41 0.325,3.293 0.325,5.32 0,15.34 -7.829,39.11 -45.372,39.11 -25.351,0 -45.07,-16.258 -49.136,-44.43 z m 7.828,-54.129 10.95,-16.898 c -1.559,-1.242 -24.723,-17.84 -60.078,-17.84 -46,0 -78.227,27.547 -78.227,76.359 0,46.93 30.969,78.86 74.781,78.86 49.762,0 68.844,-33.493 68.844,-66.661 0,-12.82 -2.813,-19.71 -3.441,-21.269 H 631.746 c 2.192,-27.852 21.59,-45.68 53.508,-45.68 28.469,0 46.934,11.879 48.812,13.129" />
      <path id="path24" style="fill:#18595f;fill-opacity:1;fill-rule:nonzero;stroke:none" d="m 885.293,732.648 c -2.488,0.934 -17.195,6.571 -40.355,6.571 -22.211,0 -42.567,-6.571 -42.567,-26.598 0,-17.832 11.899,-26.293 34.738,-26.293 27.227,0 42.254,10.961 48.184,17.211 z m 3.457,-48.199 c -1.57,-1.558 -19.723,-20.019 -55.387,-20.019 -30.359,0 -55.39,15.019 -55.39,47.25 0,31.289 26.91,48.82 65.711,48.82 21.586,0 37.863,-5.641 41.609,-6.891 v 9.082 c 0,23.149 -17.195,32.86 -46.305,32.86 -21.586,0 -39.425,-10.02 -41.609,-11.27 l -10.016,18.141 c 2.813,1.887 22.836,15.969 56.946,15.969 39.121,0 66.652,-16.911 66.652,-58.832 v -70.098 l 25.031,-3.762 V 668.18 h -40.054 l -7.188,16.269" />
      <path id="path26" style="fill:#18595f;fill-opacity:1;fill-rule:nonzero;stroke:none" d="m 1002.11,689.461 33.8,-3.762 V 668.18 h -81.359 v 17.519 l 21.902,3.762 v 101.391 l -25.668,3.757 v 18.77 l 43.192,2.5 5.945,-29.731 c 21.278,25.032 36.298,32.243 51.628,32.243 11.58,0 27.22,-6.262 27.22,-24.422 0,-11.571 -8.13,-20.957 -18.46,-20.957 -10.32,0 -16.57,7.519 -16.57,16.59 0,3.75 1.24,6.558 1.86,7.82 -4.69,-0.313 -23.47,-7.82 -43.49,-38.813 v -69.148" />
      <path id="path28" style="fill:#18595f;fill-opacity:1;fill-rule:nonzero;stroke:none" d="m 1138.62,793.039 c 4.7,5.32 23.47,25.352 58.51,25.352 33.18,0 60.41,-17.52 60.41,-64.153 v -64.777 l 25.02,-3.762 V 668.18 h -72.6 v 17.519 l 21.91,3.762 v 61.641 c 0,32.546 -12.5,44.449 -40.69,44.449 -27.53,0 -45.05,-21.91 -49.11,-30.352 v -75.738 l 25.02,-3.762 V 668.18 h -72.58 v 17.519 l 21.89,3.762 v 101.391 l -25.66,3.757 v 18.77 l 43.2,2.5 4.68,-22.84" />
      <path id="path30" style="fill:#18595f;fill-opacity:1;fill-rule:nonzero;stroke:none" d="m 1336.49,896.609 c 12.2,0 21.28,-9.379 21.28,-21.269 0,-11.578 -9.08,-20.969 -21.28,-20.969 -11.89,0 -20.95,9.391 -20.95,20.969 0,11.89 9.06,21.269 20.95,21.269 z m -36.91,-102 v 18.77 l 50.37,3.121 V 689.461 l 23.47,-3.762 V 668.18 h -71.03 v 17.519 l 21.91,3.762 v 101.391 l -24.72,3.757" />
      <path id="path32" style="fill:#18595f;fill-opacity:1;fill-rule:nonzero;stroke:none" d="m 1442.31,793.039 c 4.7,5.32 23.47,25.352 58.53,25.352 33.15,0 60.38,-17.52 60.38,-64.153 v -64.777 l 25.05,-3.762 V 668.18 h -72.61 v 17.519 l 21.92,3.762 v 61.641 c 0,32.546 -12.53,44.449 -40.69,44.449 -27.53,0 -45.07,-21.91 -49.13,-30.352 v -75.738 l 25.04,-3.762 V 668.18 h -72.61 v 17.519 l 21.92,3.762 v 101.391 l -25.68,3.757 v 18.77 l 43.2,2.5 4.68,-22.84" />
      <path id="path34" style="fill:#18595f;fill-opacity:1;fill-rule:nonzero;stroke:none" d="m 1725,747.352 c 0,26.918 -16.9,46.617 -47.26,46.617 -30.36,0 -47.88,-19.078 -47.88,-46.617 0,-27.543 17.52,-46 47.88,-46 30.04,0 47.26,19.097 47.26,46 z m 4.37,-92.942 c 0,16.899 -7.83,26.289 -15,31.61 -4.7,-2.192 -15.03,-7.192 -36.63,-7.192 -42.55,0 -72.59,26.902 -72.59,68.524 0,42.558 30.04,68.839 72.59,68.839 11.9,0 21.92,-2.191 31.3,-5.941 0.63,0.629 19.08,16.262 45.05,16.262 V 801.48 h -3.74 c -12.52,0 -19.1,-3.429 -21.28,-4.691 13.45,-12.828 20.96,-28.16 20.96,-49.437 0,-18.141 -5.63,-35.672 -17.22,-47.243 3.76,-3.757 20.98,-21.281 20.98,-46.629 0,-30.98 -23.17,-55.39 -74.79,-55.39 -32.87,0 -69.47,14.39 -69.47,38.801 0,11.257 8.14,20.019 18.46,20.019 10.63,0 16.28,-8.129 16.28,-15.64 0,-6.879 -3.14,-10.321 -4.39,-11.571 3.76,-3.449 11.9,-10.008 39.12,-10.008 27.21,0 50.37,8.758 50.37,34.719" />
      <path id="path36" style="fill:#399c89;fill-opacity:1;fill-rule:nonzero;stroke:none" d="m 1053.61,503.48 v 70.391 l -18.63,3.5 v 16.891 h 60.08 v -16.891 l -16.45,-3.5 V 503.48 c 0,-38.378 -21.48,-53.949 -53.94,-53.949 -24.35,0 -47.147,14.469 -47.147,30.918 0,10.09 7.02,18.199 16.454,18.199 10.073,0 14.903,-7.898 14.903,-14.91 0,-3.718 -1.31,-5.918 -1.97,-6.797 2.19,-2.41 8.11,-5.48 18.85,-5.48 16.23,0 27.85,8.328 27.85,32.019" />
      <path id="path38" style="fill:#399c89;fill-opacity:1;fill-rule:nonzero;stroke:none" d="m 1197.18,467.07 c -6.36,-6.129 -20.39,-16.66 -39.26,-16.66 -29.15,0 -43.85,15.781 -43.85,49.988 v 35.09 l -16.89,3.063 v 17.109 h 40.79 V 501.5 c 0,-20.609 4.83,-30.262 22.58,-30.262 17.34,0 28.73,11.84 32.03,17.114 v 46.918 l -18.21,3.281 v 17.109 h 42.1 v -82.89 l 17.11,-3.059 v -16.672 h -30.27 l -6.13,14.031" />
      <path id="path40" style="fill:#399c89;fill-opacity:1;fill-rule:nonzero;stroke:none" d="m 1279.77,541.629 c 5.03,5.051 18.2,17.551 40.12,17.551 24.57,0 44.29,-13.379 44.29,-46.059 V 472.77 l 17.11,-3.059 v -16.672 h -55.91 v 16.672 l 14.9,3.059 v 35.089 c 0,21.493 -8.11,29.61 -25.44,29.61 -15.55,0 -27.85,-11.41 -32.45,-18.86 V 472.77 l 17.11,-3.059 v -16.672 h -55.93 v 16.672 l 14.93,3.059 v 62.062 l -17.55,3.289 v 17.539 l 33.11,1.551 5.71,-15.582" />
      <path id="path42" style="fill:#399c89;fill-opacity:1;fill-rule:nonzero;stroke:none" d="m 1473.75,507.859 c 0,16.231 -10.52,29.161 -30.49,29.161 -19.73,0 -30.69,-12.711 -30.69,-29.161 0,-16.437 10.96,-29.379 30.69,-29.379 19.74,0 30.49,13.379 30.49,29.379 z m 3.73,-62.5 c 0,9.43 -4.83,15.582 -8.78,19.082 -3.73,-1.972 -12.93,-5.91 -26.09,-5.91 -31.36,0 -53.72,19.949 -53.72,49.328 0,30.039 22.57,49.551 54.37,49.551 8.13,0 17.55,-2.191 23.92,-4.601 3.94,4.832 14.03,14.703 33.11,14.703 v -22.59 h -2.42 c -4.83,0 -11.84,-0.883 -15.35,-3.512 10.52,-9.211 14.7,-21.269 14.7,-33.551 0,-12.058 -3.29,-22.589 -11.41,-31.359 3.95,-3.941 14.69,-14.68 14.69,-30.699 0,-23.68 -17.53,-42.762 -57,-42.762 -22.37,0 -51.99,10.75 -51.99,30.922 0,8.988 6.36,15.801 15.36,15.801 9.43,0 14.26,-7.25 14.26,-14.043 0,-2.848 -0.89,-4.821 -1.55,-5.699 3.08,-3.52 11.19,-6.809 24.79,-6.809 17.97,0 33.11,7.238 33.11,22.148" />
      <path id="path44" style="fill:#399c89;fill-opacity:1;fill-rule:nonzero;stroke:none" d="m 1513.58,593.82 v 17.989 l 40.8,1.972 V 472.77 l 17.1,-3.059 v -16.672 h -58.1 v 16.672 l 17.09,3.059 v 118.421 l -16.89,2.629" />
      <path id="path46" style="fill:#399c89;fill-opacity:1;fill-rule:nonzero;stroke:none" d="m 1667.05,514 c 0.12,0.551 0.23,1.211 0.23,1.98 0,9.211 -6.36,22.801 -28.52,22.801 -16.88,0 -29.82,-8.992 -31.58,-24.781 z m 9.22,-36.621 8.98,-16.231 c -4.6,-2.847 -20.17,-11.617 -45.61,-11.617 -34.2,0 -55.91,21.059 -55.91,53.949 0,32.008 21.26,55.7 54.82,55.7 36.62,0 50.43,-24.129 50.43,-47.809 0,-5.711 -0.88,-11.41 -2.41,-16.012 h -79.16 c 1.31,-16.668 14.04,-25.871 33.77,-25.871 16.45,0 28.94,4.832 35.09,7.891" />
-->
</g>
  </g>
</svg>
