<?xml version="1.0" encoding="utf-8"?>
<svg version="1.1" baseProfile="full"  width="588" height="588" viewBox="0 0 588 588"
		 xmlns="http://www.w3.org/2000/svg" xmlns:xlink="http://www.w3.org/1999/xlink" xmlns:ev="http://www.w3.org/2001/xml-events">
<desc></desc>
<rect width="588" height="588" fill="#ffffff" cx="0" cy="0" />
<defs>
<rect id="p" width="12" height="12" />
</defs>
<g fill="#000000">
<use x="48" y="48" xlink:href="#p" />
<use x="48" y="60" xlink:href="#p" />
<use x="48" y="72" xlink:href="#p" />
<use x="48" y="84" xlink:href="#p" />
<use x="48" y="96" xlink:href="#p" />
<use x="48" y="108" xlink:href="#p" />
<use x="48" y="120" xlink:href="#p" />
<use x="48" y="144" xlink:href="#p" />
<use x="48" y="156" xlink:href="#p" />
<use x="48" y="180" xlink:href="#p" />
<use x="48" y="192" xlink:href="#p" />
<use x="48" y="204" xlink:href="#p" />
<use x="48" y="216" xlink:href="#p" />
<use x="48" y="228" xlink:href="#p" />
<use x="48" y="240" xlink:href="#p" />
<use x="48" y="264" xlink:href="#p" />
<use x="48" y="288" xlink:href="#p" />
<use x="48" y="336" xlink:href="#p" />
<use x="48" y="384" xlink:href="#p" />
<use x="48" y="396" xlink:href="#p" />
<use x="48" y="420" xlink:href="#p" />
<use x="48" y="456" xlink:href="#p" />
<use x="48" y="468" xlink:href="#p" />
<use x="48" y="480" xlink:href="#p" />
<use x="48" y="492" xlink:href="#p" />
<use x="48" y="504" xlink:href="#p" />
<use x="48" y="516" xlink:href="#p" />
<use x="48" y="528" xlink:href="#p" />
<use x="60" y="48" xlink:href="#p" />
<use x="60" y="120" xlink:href="#p" />
<use x="60" y="168" xlink:href="#p" />
<use x="60" y="192" xlink:href="#p" />
<use x="60" y="228" xlink:href="#p" />
<use x="60" y="240" xlink:href="#p" />
<use x="60" y="252" xlink:href="#p" />
<use x="60" y="276" xlink:href="#p" />
<use x="60" y="348" xlink:href="#p" />
<use x="60" y="384" xlink:href="#p" />
<use x="60" y="408" xlink:href="#p" />
<use x="60" y="420" xlink:href="#p" />
<use x="60" y="432" xlink:href="#p" />
<use x="60" y="456" xlink:href="#p" />
<use x="60" y="528" xlink:href="#p" />
<use x="72" y="48" xlink:href="#p" />
<use x="72" y="72" xlink:href="#p" />
<use x="72" y="84" xlink:href="#p" />
<use x="72" y="96" xlink:href="#p" />
<use x="72" y="120" xlink:href="#p" />
<use x="72" y="156" xlink:href="#p" />
<use x="72" y="168" xlink:href="#p" />
<use x="72" y="204" xlink:href="#p" />
<use x="72" y="240" xlink:href="#p" />
<use x="72" y="252" xlink:href="#p" />
<use x="72" y="264" xlink:href="#p" />
<use x="72" y="276" xlink:href="#p" />
<use x="72" y="288" xlink:href="#p" />
<use x="72" y="324" xlink:href="#p" />
<use x="72" y="336" xlink:href="#p" />
<use x="72" y="348" xlink:href="#p" />
<use x="72" y="372" xlink:href="#p" />
<use x="72" y="396" xlink:href="#p" />
<use x="72" y="408" xlink:href="#p" />
<use x="72" y="456" xlink:href="#p" />
<use x="72" y="480" xlink:href="#p" />
<use x="72" y="492" xlink:href="#p" />
<use x="72" y="504" xlink:href="#p" />
<use x="72" y="528" xlink:href="#p" />
<use x="84" y="48" xlink:href="#p" />
<use x="84" y="72" xlink:href="#p" />
<use x="84" y="84" xlink:href="#p" />
<use x="84" y="96" xlink:href="#p" />
<use x="84" y="120" xlink:href="#p" />
<use x="84" y="144" xlink:href="#p" />
<use x="84" y="156" xlink:href="#p" />
<use x="84" y="168" xlink:href="#p" />
<use x="84" y="204" xlink:href="#p" />
<use x="84" y="240" xlink:href="#p" />
<use x="84" y="276" xlink:href="#p" />
<use x="84" y="300" xlink:href="#p" />
<use x="84" y="312" xlink:href="#p" />
<use x="84" y="324" xlink:href="#p" />
<use x="84" y="348" xlink:href="#p" />
<use x="84" y="408" xlink:href="#p" />
<use x="84" y="420" xlink:href="#p" />
<use x="84" y="456" xlink:href="#p" />
<use x="84" y="480" xlink:href="#p" />
<use x="84" y="492" xlink:href="#p" />
<use x="84" y="504" xlink:href="#p" />
<use x="84" y="528" xlink:href="#p" />
<use x="96" y="48" xlink:href="#p" />
<use x="96" y="72" xlink:href="#p" />
<use x="96" y="84" xlink:href="#p" />
<use x="96" y="96" xlink:href="#p" />
<use x="96" y="120" xlink:href="#p" />
<use x="96" y="168" xlink:href="#p" />
<use x="96" y="216" xlink:href="#p" />
<use x="96" y="228" xlink:href="#p" />
<use x="96" y="264" xlink:href="#p" />
<use x="96" y="312" xlink:href="#p" />
<use x="96" y="324" xlink:href="#p" />
<use x="96" y="336" xlink:href="#p" />
<use x="96" y="384" xlink:href="#p" />
<use x="96" y="396" xlink:href="#p" />
<use x="96" y="456" xlink:href="#p" />
<use x="96" y="480" xlink:href="#p" />
<use x="96" y="492" xlink:href="#p" />
<use x="96" y="504" xlink:href="#p" />
<use x="96" y="528" xlink:href="#p" />
<use x="108" y="48" xlink:href="#p" />
<use x="108" y="120" xlink:href="#p" />
<use x="108" y="144" xlink:href="#p" />
<use x="108" y="156" xlink:href="#p" />
<use x="108" y="168" xlink:href="#p" />
<use x="108" y="204" xlink:href="#p" />
<use x="108" y="252" xlink:href="#p" />
<use x="108" y="276" xlink:href="#p" />
<use x="108" y="288" xlink:href="#p" />
<use x="108" y="300" xlink:href="#p" />
<use x="108" y="372" xlink:href="#p" />
<use x="108" y="396" xlink:href="#p" />
<use x="108" y="456" xlink:href="#p" />
<use x="108" y="528" xlink:href="#p" />
<use x="120" y="48" xlink:href="#p" />
<use x="120" y="60" xlink:href="#p" />
<use x="120" y="72" xlink:href="#p" />
<use x="120" y="84" xlink:href="#p" />
<use x="120" y="96" xlink:href="#p" />
<use x="120" y="108" xlink:href="#p" />
<use x="120" y="120" xlink:href="#p" />
<use x="120" y="144" xlink:href="#p" />
<use x="120" y="168" xlink:href="#p" />
<use x="120" y="192" xlink:href="#p" />
<use x="120" y="216" xlink:href="#p" />
<use x="120" y="240" xlink:href="#p" />
<use x="120" y="264" xlink:href="#p" />
<use x="120" y="288" xlink:href="#p" />
<use x="120" y="312" xlink:href="#p" />
<use x="120" y="336" xlink:href="#p" />
<use x="120" y="360" xlink:href="#p" />
<use x="120" y="384" xlink:href="#p" />
<use x="120" y="408" xlink:href="#p" />
<use x="120" y="432" xlink:href="#p" />
<use x="120" y="456" xlink:href="#p" />
<use x="120" y="468" xlink:href="#p" />
<use x="120" y="480" xlink:href="#p" />
<use x="120" y="492" xlink:href="#p" />
<use x="120" y="504" xlink:href="#p" />
<use x="120" y="516" xlink:href="#p" />
<use x="120" y="528" xlink:href="#p" />
<use x="132" y="156" xlink:href="#p" />
<use x="132" y="168" xlink:href="#p" />
<use x="132" y="180" xlink:href="#p" />
<use x="132" y="192" xlink:href="#p" />
<use x="132" y="204" xlink:href="#p" />
<use x="132" y="288" xlink:href="#p" />
<use x="132" y="300" xlink:href="#p" />
<use x="132" y="324" xlink:href="#p" />
<use x="132" y="336" xlink:href="#p" />
<use x="132" y="360" xlink:href="#p" />
<use x="132" y="408" xlink:href="#p" />
<use x="132" y="432" xlink:href="#p" />
<use x="144" y="108" xlink:href="#p" />
<use x="144" y="120" xlink:href="#p" />
<use x="144" y="144" xlink:href="#p" />
<use x="144" y="168" xlink:href="#p" />
<use x="144" y="192" xlink:href="#p" />
<use x="144" y="216" xlink:href="#p" />
<use x="144" y="324" xlink:href="#p" />
<use x="144" y="348" xlink:href="#p" />
<use x="144" y="360" xlink:href="#p" />
<use x="144" y="408" xlink:href="#p" />
<use x="144" y="444" xlink:href="#p" />
<use x="144" y="468" xlink:href="#p" />
<use x="144" y="492" xlink:href="#p" />
<use x="144" y="528" xlink:href="#p" />
<use x="156" y="48" xlink:href="#p" />
<use x="156" y="60" xlink:href="#p" />
<use x="156" y="72" xlink:href="#p" />
<use x="156" y="96" xlink:href="#p" />
<use x="156" y="132" xlink:href="#p" />
<use x="156" y="168" xlink:href="#p" />
<use x="156" y="180" xlink:href="#p" />
<use x="156" y="204" xlink:href="#p" />
<use x="156" y="288" xlink:href="#p" />
<use x="156" y="324" xlink:href="#p" />
<use x="156" y="336" xlink:href="#p" />
<use x="156" y="348" xlink:href="#p" />
<use x="156" y="360" xlink:href="#p" />
<use x="156" y="372" xlink:href="#p" />
<use x="156" y="384" xlink:href="#p" />
<use x="156" y="408" xlink:href="#p" />
<use x="156" y="420" xlink:href="#p" />
<use x="156" y="432" xlink:href="#p" />
<use x="156" y="456" xlink:href="#p" />
<use x="156" y="492" xlink:href="#p" />
<use x="156" y="504" xlink:href="#p" />
<use x="168" y="48" xlink:href="#p" />
<use x="168" y="72" xlink:href="#p" />
<use x="168" y="96" xlink:href="#p" />
<use x="168" y="120" xlink:href="#p" />
<use x="168" y="132" xlink:href="#p" />
<use x="168" y="168" xlink:href="#p" />
<use x="168" y="180" xlink:href="#p" />
<use x="168" y="204" xlink:href="#p" />
<use x="168" y="216" xlink:href="#p" />
<use x="168" y="252" xlink:href="#p" />
<use x="168" y="264" xlink:href="#p" />
<use x="168" y="276" xlink:href="#p" />
<use x="168" y="288" xlink:href="#p" />
<use x="168" y="312" xlink:href="#p" />
<use x="168" y="348" xlink:href="#p" />
<use x="168" y="360" xlink:href="#p" />
<use x="168" y="384" xlink:href="#p" />
<use x="168" y="408" xlink:href="#p" />
<use x="168" y="420" xlink:href="#p" />
<use x="168" y="432" xlink:href="#p" />
<use x="168" y="444" xlink:href="#p" />
<use x="168" y="468" xlink:href="#p" />
<use x="168" y="480" xlink:href="#p" />
<use x="168" y="504" xlink:href="#p" />
<use x="168" y="528" xlink:href="#p" />
<use x="180" y="60" xlink:href="#p" />
<use x="180" y="84" xlink:href="#p" />
<use x="180" y="96" xlink:href="#p" />
<use x="180" y="132" xlink:href="#p" />
<use x="180" y="168" xlink:href="#p" />
<use x="180" y="180" xlink:href="#p" />
<use x="180" y="204" xlink:href="#p" />
<use x="180" y="216" xlink:href="#p" />
<use x="180" y="252" xlink:href="#p" />
<use x="180" y="276" xlink:href="#p" />
<use x="180" y="288" xlink:href="#p" />
<use x="180" y="300" xlink:href="#p" />
<use x="180" y="312" xlink:href="#p" />
<use x="180" y="348" xlink:href="#p" />
<use x="180" y="360" xlink:href="#p" />
<use x="180" y="384" xlink:href="#p" />
<use x="180" y="420" xlink:href="#p" />
<use x="180" y="444" xlink:href="#p" />
<use x="180" y="492" xlink:href="#p" />
<use x="180" y="516" xlink:href="#p" />
<use x="192" y="48" xlink:href="#p" />
<use x="192" y="72" xlink:href="#p" />
<use x="192" y="84" xlink:href="#p" />
<use x="192" y="96" xlink:href="#p" />
<use x="192" y="120" xlink:href="#p" />
<use x="192" y="156" xlink:href="#p" />
<use x="192" y="204" xlink:href="#p" />
<use x="192" y="228" xlink:href="#p" />
<use x="192" y="240" xlink:href="#p" />
<use x="192" y="264" xlink:href="#p" />
<use x="192" y="276" xlink:href="#p" />
<use x="192" y="300" xlink:href="#p" />
<use x="192" y="312" xlink:href="#p" />
<use x="192" y="348" xlink:href="#p" />
<use x="192" y="360" xlink:href="#p" />
<use x="192" y="384" xlink:href="#p" />
<use x="192" y="396" xlink:href="#p" />
<use x="192" y="408" xlink:href="#p" />
<use x="192" y="420" xlink:href="#p" />
<use x="192" y="468" xlink:href="#p" />
<use x="192" y="480" xlink:href="#p" />
<use x="192" y="492" xlink:href="#p" />
<use x="192" y="504" xlink:href="#p" />
<use x="192" y="516" xlink:href="#p" />
<use x="192" y="528" xlink:href="#p" />
<use x="204" y="48" xlink:href="#p" />
<use x="204" y="72" xlink:href="#p" />
<use x="204" y="168" xlink:href="#p" />
<use x="204" y="192" xlink:href="#p" />
<use x="204" y="204" xlink:href="#p" />
<use x="204" y="216" xlink:href="#p" />
<use x="204" y="228" xlink:href="#p" />
<use x="204" y="264" xlink:href="#p" />
<use x="204" y="300" xlink:href="#p" />
<use x="204" y="312" xlink:href="#p" />
<use x="204" y="324" xlink:href="#p" />
<use x="204" y="348" xlink:href="#p" />
<use x="204" y="372" xlink:href="#p" />
<use x="204" y="396" xlink:href="#p" />
<use x="204" y="420" xlink:href="#p" />
<use x="204" y="432" xlink:href="#p" />
<use x="204" y="456" xlink:href="#p" />
<use x="204" y="468" xlink:href="#p" />
<use x="204" y="504" xlink:href="#p" />
<use x="204" y="528" xlink:href="#p" />
<use x="216" y="48" xlink:href="#p" />
<use x="216" y="84" xlink:href="#p" />
<use x="216" y="108" xlink:href="#p" />
<use x="216" y="120" xlink:href="#p" />
<use x="216" y="144" xlink:href="#p" />
<use x="216" y="180" xlink:href="#p" />
<use x="216" y="204" xlink:href="#p" />
<use x="216" y="228" xlink:href="#p" />
<use x="216" y="252" xlink:href="#p" />
<use x="216" y="288" xlink:href="#p" />
<use x="216" y="336" xlink:href="#p" />
<use x="216" y="384" xlink:href="#p" />
<use x="216" y="396" xlink:href="#p" />
<use x="216" y="408" xlink:href="#p" />
<use x="216" y="420" xlink:href="#p" />
<use x="216" y="444" xlink:href="#p" />
<use x="216" y="456" xlink:href="#p" />
<use x="216" y="492" xlink:href="#p" />
<use x="216" y="516" xlink:href="#p" />
<use x="216" y="528" xlink:href="#p" />
<use x="228" y="48" xlink:href="#p" />
<use x="228" y="60" xlink:href="#p" />
<use x="228" y="84" xlink:href="#p" />
<use x="228" y="96" xlink:href="#p" />
<use x="228" y="108" xlink:href="#p" />
<use x="228" y="132" xlink:href="#p" />
<use x="228" y="156" xlink:href="#p" />
<use x="228" y="192" xlink:href="#p" />
<use x="228" y="240" xlink:href="#p" />
<use x="228" y="252" xlink:href="#p" />
<use x="228" y="264" xlink:href="#p" />
<use x="228" y="288" xlink:href="#p" />
<use x="228" y="312" xlink:href="#p" />
<use x="228" y="324" xlink:href="#p" />
<use x="228" y="408" xlink:href="#p" />
<use x="228" y="420" xlink:href="#p" />
<use x="228" y="432" xlink:href="#p" />
<use x="228" y="444" xlink:href="#p" />
<use x="228" y="456" xlink:href="#p" />
<use x="228" y="468" xlink:href="#p" />
<use x="228" y="480" xlink:href="#p" />
<use x="240" y="48" xlink:href="#p" />
<use x="240" y="60" xlink:href="#p" />
<use x="240" y="84" xlink:href="#p" />
<use x="240" y="96" xlink:href="#p" />
<use x="240" y="120" xlink:href="#p" />
<use x="240" y="180" xlink:href="#p" />
<use x="240" y="192" xlink:href="#p" />
<use x="240" y="204" xlink:href="#p" />
<use x="240" y="228" xlink:href="#p" />
<use x="240" y="252" xlink:href="#p" />
<use x="240" y="264" xlink:href="#p" />
<use x="240" y="288" xlink:href="#p" />
<use x="240" y="300" xlink:href="#p" />
<use x="240" y="324" xlink:href="#p" />
<use x="240" y="348" xlink:href="#p" />
<use x="240" y="384" xlink:href="#p" />
<use x="240" y="444" xlink:href="#p" />
<use x="240" y="456" xlink:href="#p" />
<use x="240" y="480" xlink:href="#p" />
<use x="240" y="492" xlink:href="#p" />
<use x="240" y="504" xlink:href="#p" />
<use x="240" y="516" xlink:href="#p" />
<use x="252" y="48" xlink:href="#p" />
<use x="252" y="84" xlink:href="#p" />
<use x="252" y="132" xlink:href="#p" />
<use x="252" y="192" xlink:href="#p" />
<use x="252" y="228" xlink:href="#p" />
<use x="252" y="240" xlink:href="#p" />
<use x="252" y="276" xlink:href="#p" />
<use x="252" y="288" xlink:href="#p" />
<use x="252" y="300" xlink:href="#p" />
<use x="252" y="336" xlink:href="#p" />
<use x="252" y="348" xlink:href="#p" />
<use x="252" y="360" xlink:href="#p" />
<use x="252" y="372" xlink:href="#p" />
<use x="252" y="384" xlink:href="#p" />
<use x="252" y="420" xlink:href="#p" />
<use x="252" y="456" xlink:href="#p" />
<use x="252" y="468" xlink:href="#p" />
<use x="252" y="504" xlink:href="#p" />
<use x="252" y="516" xlink:href="#p" />
<use x="264" y="48" xlink:href="#p" />
<use x="264" y="60" xlink:href="#p" />
<use x="264" y="72" xlink:href="#p" />
<use x="264" y="84" xlink:href="#p" />
<use x="264" y="96" xlink:href="#p" />
<use x="264" y="108" xlink:href="#p" />
<use x="264" y="120" xlink:href="#p" />
<use x="264" y="132" xlink:href="#p" />
<use x="264" y="168" xlink:href="#p" />
<use x="264" y="180" xlink:href="#p" />
<use x="264" y="192" xlink:href="#p" />
<use x="264" y="216" xlink:href="#p" />
<use x="264" y="264" xlink:href="#p" />
<use x="264" y="276" xlink:href="#p" />
<use x="264" y="288" xlink:href="#p" />
<use x="264" y="300" xlink:href="#p" />
<use x="264" y="360" xlink:href="#p" />
<use x="264" y="384" xlink:href="#p" />
<use x="264" y="396" xlink:href="#p" />
<use x="264" y="408" xlink:href="#p" />
<use x="264" y="420" xlink:href="#p" />
<use x="276" y="48" xlink:href="#p" />
<use x="276" y="84" xlink:href="#p" />
<use x="276" y="108" xlink:href="#p" />
<use x="276" y="132" xlink:href="#p" />
<use x="276" y="168" xlink:href="#p" />
<use x="276" y="180" xlink:href="#p" />
<use x="276" y="192" xlink:href="#p" />
<use x="276" y="228" xlink:href="#p" />
<use x="276" y="240" xlink:href="#p" />
<use x="276" y="276" xlink:href="#p" />
<use x="276" y="312" xlink:href="#p" />
<use x="276" y="324" xlink:href="#p" />
<use x="276" y="348" xlink:href="#p" />
<use x="276" y="372" xlink:href="#p" />
<use x="276" y="396" xlink:href="#p" />
<use x="276" y="408" xlink:href="#p" />
<use x="276" y="420" xlink:href="#p" />
<use x="276" y="432" xlink:href="#p" />
<use x="276" y="456" xlink:href="#p" />
<use x="276" y="468" xlink:href="#p" />
<use x="276" y="492" xlink:href="#p" />
<use x="276" y="516" xlink:href="#p" />
<use x="276" y="528" xlink:href="#p" />
<use x="288" y="60" xlink:href="#p" />
<use x="288" y="96" xlink:href="#p" />
<use x="288" y="108" xlink:href="#p" />
<use x="288" y="120" xlink:href="#p" />
<use x="288" y="132" xlink:href="#p" />
<use x="288" y="156" xlink:href="#p" />
<use x="288" y="216" xlink:href="#p" />
<use x="288" y="240" xlink:href="#p" />
<use x="288" y="264" xlink:href="#p" />
<use x="288" y="288" xlink:href="#p" />
<use x="288" y="324" xlink:href="#p" />
<use x="288" y="336" xlink:href="#p" />
<use x="288" y="348" xlink:href="#p" />
<use x="288" y="360" xlink:href="#p" />
<use x="288" y="384" xlink:href="#p" />
<use x="288" y="408" xlink:href="#p" />
<use x="288" y="420" xlink:href="#p" />
<use x="288" y="432" xlink:href="#p" />
<use x="288" y="444" xlink:href="#p" />
<use x="288" y="456" xlink:href="#p" />
<use x="288" y="516" xlink:href="#p" />
<use x="288" y="528" xlink:href="#p" />
<use x="300" y="60" xlink:href="#p" />
<use x="300" y="84" xlink:href="#p" />
<use x="300" y="132" xlink:href="#p" />
<use x="300" y="144" xlink:href="#p" />
<use x="300" y="156" xlink:href="#p" />
<use x="300" y="180" xlink:href="#p" />
<use x="300" y="192" xlink:href="#p" />
<use x="300" y="204" xlink:href="#p" />
<use x="300" y="228" xlink:href="#p" />
<use x="300" y="264" xlink:href="#p" />
<use x="300" y="300" xlink:href="#p" />
<use x="300" y="312" xlink:href="#p" />
<use x="300" y="324" xlink:href="#p" />
<use x="300" y="336" xlink:href="#p" />
<use x="300" y="372" xlink:href="#p" />
<use x="300" y="384" xlink:href="#p" />
<use x="300" y="396" xlink:href="#p" />
<use x="300" y="420" xlink:href="#p" />
<use x="300" y="432" xlink:href="#p" />
<use x="300" y="444" xlink:href="#p" />
<use x="300" y="468" xlink:href="#p" />
<use x="300" y="516" xlink:href="#p" />
<use x="300" y="528" xlink:href="#p" />
<use x="312" y="48" xlink:href="#p" />
<use x="312" y="60" xlink:href="#p" />
<use x="312" y="96" xlink:href="#p" />
<use x="312" y="120" xlink:href="#p" />
<use x="312" y="132" xlink:href="#p" />
<use x="312" y="192" xlink:href="#p" />
<use x="312" y="204" xlink:href="#p" />
<use x="312" y="228" xlink:href="#p" />
<use x="312" y="240" xlink:href="#p" />
<use x="312" y="276" xlink:href="#p" />
<use x="312" y="324" xlink:href="#p" />
<use x="312" y="348" xlink:href="#p" />
<use x="312" y="360" xlink:href="#p" />
<use x="312" y="396" xlink:href="#p" />
<use x="312" y="408" xlink:href="#p" />
<use x="312" y="420" xlink:href="#p" />
<use x="312" y="444" xlink:href="#p" />
<use x="312" y="468" xlink:href="#p" />
<use x="312" y="480" xlink:href="#p" />
<use x="312" y="504" xlink:href="#p" />
<use x="312" y="528" xlink:href="#p" />
<use x="324" y="48" xlink:href="#p" />
<use x="324" y="60" xlink:href="#p" />
<use x="324" y="72" xlink:href="#p" />
<use x="324" y="96" xlink:href="#p" />
<use x="324" y="132" xlink:href="#p" />
<use x="324" y="144" xlink:href="#p" />
<use x="324" y="204" xlink:href="#p" />
<use x="324" y="240" xlink:href="#p" />
<use x="324" y="252" xlink:href="#p" />
<use x="324" y="276" xlink:href="#p" />
<use x="324" y="324" xlink:href="#p" />
<use x="324" y="336" xlink:href="#p" />
<use x="324" y="348" xlink:href="#p" />
<use x="324" y="360" xlink:href="#p" />
<use x="324" y="372" xlink:href="#p" />
<use x="324" y="384" xlink:href="#p" />
<use x="324" y="420" xlink:href="#p" />
<use x="324" y="432" xlink:href="#p" />
<use x="324" y="468" xlink:href="#p" />
<use x="324" y="504" xlink:href="#p" />
<use x="324" y="528" xlink:href="#p" />
<use x="336" y="60" xlink:href="#p" />
<use x="336" y="72" xlink:href="#p" />
<use x="336" y="96" xlink:href="#p" />
<use x="336" y="108" xlink:href="#p" />
<use x="336" y="120" xlink:href="#p" />
<use x="336" y="156" xlink:href="#p" />
<use x="336" y="192" xlink:href="#p" />
<use x="336" y="204" xlink:href="#p" />
<use x="336" y="216" xlink:href="#p" />
<use x="336" y="228" xlink:href="#p" />
<use x="336" y="240" xlink:href="#p" />
<use x="336" y="252" xlink:href="#p" />
<use x="336" y="264" xlink:href="#p" />
<use x="336" y="336" xlink:href="#p" />
<use x="336" y="348" xlink:href="#p" />
<use x="336" y="360" xlink:href="#p" />
<use x="336" y="372" xlink:href="#p" />
<use x="336" y="432" xlink:href="#p" />
<use x="336" y="444" xlink:href="#p" />
<use x="336" y="480" xlink:href="#p" />
<use x="336" y="504" xlink:href="#p" />
<use x="336" y="528" xlink:href="#p" />
<use x="348" y="48" xlink:href="#p" />
<use x="348" y="60" xlink:href="#p" />
<use x="348" y="72" xlink:href="#p" />
<use x="348" y="84" xlink:href="#p" />
<use x="348" y="96" xlink:href="#p" />
<use x="348" y="108" xlink:href="#p" />
<use x="348" y="144" xlink:href="#p" />
<use x="348" y="156" xlink:href="#p" />
<use x="348" y="168" xlink:href="#p" />
<use x="348" y="180" xlink:href="#p" />
<use x="348" y="228" xlink:href="#p" />
<use x="348" y="252" xlink:href="#p" />
<use x="348" y="324" xlink:href="#p" />
<use x="348" y="336" xlink:href="#p" />
<use x="348" y="348" xlink:href="#p" />
<use x="348" y="372" xlink:href="#p" />
<use x="348" y="396" xlink:href="#p" />
<use x="348" y="408" xlink:href="#p" />
<use x="348" y="432" xlink:href="#p" />
<use x="348" y="492" xlink:href="#p" />
<use x="348" y="504" xlink:href="#p" />
<use x="348" y="516" xlink:href="#p" />
<use x="360" y="48" xlink:href="#p" />
<use x="360" y="60" xlink:href="#p" />
<use x="360" y="84" xlink:href="#p" />
<use x="360" y="96" xlink:href="#p" />
<use x="360" y="108" xlink:href="#p" />
<use x="360" y="120" xlink:href="#p" />
<use x="360" y="132" xlink:href="#p" />
<use x="360" y="144" xlink:href="#p" />
<use x="360" y="228" xlink:href="#p" />
<use x="360" y="264" xlink:href="#p" />
<use x="360" y="276" xlink:href="#p" />
<use x="360" y="300" xlink:href="#p" />
<use x="360" y="324" xlink:href="#p" />
<use x="360" y="360" xlink:href="#p" />
<use x="360" y="384" xlink:href="#p" />
<use x="360" y="408" xlink:href="#p" />
<use x="360" y="432" xlink:href="#p" />
<use x="360" y="468" xlink:href="#p" />
<use x="360" y="504" xlink:href="#p" />
<use x="360" y="516" xlink:href="#p" />
<use x="360" y="528" xlink:href="#p" />
<use x="372" y="48" xlink:href="#p" />
<use x="372" y="60" xlink:href="#p" />
<use x="372" y="72" xlink:href="#p" />
<use x="372" y="108" xlink:href="#p" />
<use x="372" y="132" xlink:href="#p" />
<use x="372" y="192" xlink:href="#p" />
<use x="372" y="204" xlink:href="#p" />
<use x="372" y="228" xlink:href="#p" />
<use x="372" y="276" xlink:href="#p" />
<use x="372" y="288" xlink:href="#p" />
<use x="372" y="300" xlink:href="#p" />
<use x="372" y="336" xlink:href="#p" />
<use x="372" y="372" xlink:href="#p" />
<use x="372" y="396" xlink:href="#p" />
<use x="372" y="408" xlink:href="#p" />
<use x="372" y="432" xlink:href="#p" />
<use x="372" y="444" xlink:href="#p" />
<use x="372" y="468" xlink:href="#p" />
<use x="372" y="480" xlink:href="#p" />
<use x="372" y="516" xlink:href="#p" />
<use x="372" y="528" xlink:href="#p" />
<use x="384" y="60" xlink:href="#p" />
<use x="384" y="72" xlink:href="#p" />
<use x="384" y="96" xlink:href="#p" />
<use x="384" y="120" xlink:href="#p" />
<use x="384" y="144" xlink:href="#p" />
<use x="384" y="156" xlink:href="#p" />
<use x="384" y="204" xlink:href="#p" />
<use x="384" y="240" xlink:href="#p" />
<use x="384" y="264" xlink:href="#p" />
<use x="384" y="300" xlink:href="#p" />
<use x="384" y="312" xlink:href="#p" />
<use x="384" y="336" xlink:href="#p" />
<use x="384" y="396" xlink:href="#p" />
<use x="384" y="408" xlink:href="#p" />
<use x="384" y="432" xlink:href="#p" />
<use x="384" y="444" xlink:href="#p" />
<use x="384" y="456" xlink:href="#p" />
<use x="384" y="492" xlink:href="#p" />
<use x="384" y="504" xlink:href="#p" />
<use x="384" y="516" xlink:href="#p" />
<use x="396" y="60" xlink:href="#p" />
<use x="396" y="72" xlink:href="#p" />
<use x="396" y="84" xlink:href="#p" />
<use x="396" y="96" xlink:href="#p" />
<use x="396" y="108" xlink:href="#p" />
<use x="396" y="132" xlink:href="#p" />
<use x="396" y="144" xlink:href="#p" />
<use x="396" y="192" xlink:href="#p" />
<use x="396" y="216" xlink:href="#p" />
<use x="396" y="228" xlink:href="#p" />
<use x="396" y="252" xlink:href="#p" />
<use x="396" y="264" xlink:href="#p" />
<use x="396" y="288" xlink:href="#p" />
<use x="396" y="300" xlink:href="#p" />
<use x="396" y="336" xlink:href="#p" />
<use x="396" y="360" xlink:href="#p" />
<use x="396" y="372" xlink:href="#p" />
<use x="396" y="384" xlink:href="#p" />
<use x="396" y="420" xlink:href="#p" />
<use x="396" y="432" xlink:href="#p" />
<use x="396" y="444" xlink:href="#p" />
<use x="396" y="492" xlink:href="#p" />
<use x="396" y="516" xlink:href="#p" />
<use x="396" y="528" xlink:href="#p" />
<use x="408" y="48" xlink:href="#p" />
<use x="408" y="120" xlink:href="#p" />
<use x="408" y="156" xlink:href="#p" />
<use x="408" y="192" xlink:href="#p" />
<use x="408" y="228" xlink:href="#p" />
<use x="408" y="348" xlink:href="#p" />
<use x="408" y="384" xlink:href="#p" />
<use x="408" y="408" xlink:href="#p" />
<use x="408" y="420" xlink:href="#p" />
<use x="408" y="456" xlink:href="#p" />
<use x="408" y="468" xlink:href="#p" />
<use x="408" y="480" xlink:href="#p" />
<use x="408" y="492" xlink:href="#p" />
<use x="408" y="504" xlink:href="#p" />
<use x="420" y="84" xlink:href="#p" />
<use x="420" y="108" xlink:href="#p" />
<use x="420" y="144" xlink:href="#p" />
<use x="420" y="168" xlink:href="#p" />
<use x="420" y="192" xlink:href="#p" />
<use x="420" y="216" xlink:href="#p" />
<use x="420" y="252" xlink:href="#p" />
<use x="420" y="276" xlink:href="#p" />
<use x="420" y="288" xlink:href="#p" />
<use x="420" y="312" xlink:href="#p" />
<use x="420" y="324" xlink:href="#p" />
<use x="420" y="336" xlink:href="#p" />
<use x="420" y="396" xlink:href="#p" />
<use x="420" y="420" xlink:href="#p" />
<use x="420" y="432" xlink:href="#p" />
<use x="420" y="468" xlink:href="#p" />
<use x="420" y="492" xlink:href="#p" />
<use x="420" y="504" xlink:href="#p" />
<use x="420" y="516" xlink:href="#p" />
<use x="420" y="528" xlink:href="#p" />
<use x="432" y="60" xlink:href="#p" />
<use x="432" y="72" xlink:href="#p" />
<use x="432" y="96" xlink:href="#p" />
<use x="432" y="108" xlink:href="#p" />
<use x="432" y="120" xlink:href="#p" />
<use x="432" y="132" xlink:href="#p" />
<use x="432" y="144" xlink:href="#p" />
<use x="432" y="168" xlink:href="#p" />
<use x="432" y="192" xlink:href="#p" />
<use x="432" y="204" xlink:href="#p" />
<use x="432" y="228" xlink:href="#p" />
<use x="432" y="240" xlink:href="#p" />
<use x="432" y="312" xlink:href="#p" />
<use x="432" y="336" xlink:href="#p" />
<use x="432" y="348" xlink:href="#p" />
<use x="432" y="384" xlink:href="#p" />
<use x="432" y="396" xlink:href="#p" />
<use x="432" y="432" xlink:href="#p" />
<use x="432" y="444" xlink:href="#p" />
<use x="432" y="456" xlink:href="#p" />
<use x="432" y="468" xlink:href="#p" />
<use x="432" y="480" xlink:href="#p" />
<use x="432" y="516" xlink:href="#p" />
<use x="432" y="528" xlink:href="#p" />
<use x="444" y="144" xlink:href="#p" />
<use x="444" y="168" xlink:href="#p" />
<use x="444" y="180" xlink:href="#p" />
<use x="444" y="228" xlink:href="#p" />
<use x="444" y="240" xlink:href="#p" />
<use x="444" y="252" xlink:href="#p" />
<use x="444" y="276" xlink:href="#p" />
<use x="444" y="300" xlink:href="#p" />
<use x="444" y="312" xlink:href="#p" />
<use x="444" y="408" xlink:href="#p" />
<use x="444" y="420" xlink:href="#p" />
<use x="444" y="432" xlink:href="#p" />
<use x="444" y="480" xlink:href="#p" />
<use x="444" y="492" xlink:href="#p" />
<use x="444" y="504" xlink:href="#p" />
<use x="456" y="48" xlink:href="#p" />
<use x="456" y="60" xlink:href="#p" />
<use x="456" y="72" xlink:href="#p" />
<use x="456" y="84" xlink:href="#p" />
<use x="456" y="96" xlink:href="#p" />
<use x="456" y="108" xlink:href="#p" />
<use x="456" y="120" xlink:href="#p" />
<use x="456" y="156" xlink:href="#p" />
<use x="456" y="192" xlink:href="#p" />
<use x="456" y="216" xlink:href="#p" />
<use x="456" y="228" xlink:href="#p" />
<use x="456" y="288" xlink:href="#p" />
<use x="456" y="300" xlink:href="#p" />
<use x="456" y="336" xlink:href="#p" />
<use x="456" y="372" xlink:href="#p" />
<use x="456" y="396" xlink:href="#p" />
<use x="456" y="408" xlink:href="#p" />
<use x="456" y="420" xlink:href="#p" />
<use x="456" y="432" xlink:href="#p" />
<use x="456" y="456" xlink:href="#p" />
<use x="456" y="480" xlink:href="#p" />
<use x="456" y="492" xlink:href="#p" />
<use x="456" y="516" xlink:href="#p" />
<use x="468" y="48" xlink:href="#p" />
<use x="468" y="120" xlink:href="#p" />
<use x="468" y="144" xlink:href="#p" />
<use x="468" y="156" xlink:href="#p" />
<use x="468" y="180" xlink:href="#p" />
<use x="468" y="192" xlink:href="#p" />
<use x="468" y="204" xlink:href="#p" />
<use x="468" y="216" xlink:href="#p" />
<use x="468" y="228" xlink:href="#p" />
<use x="468" y="240" xlink:href="#p" />
<use x="468" y="252" xlink:href="#p" />
<use x="468" y="264" xlink:href="#p" />
<use x="468" y="276" xlink:href="#p" />
<use x="468" y="312" xlink:href="#p" />
<use x="468" y="324" xlink:href="#p" />
<use x="468" y="336" xlink:href="#p" />
<use x="468" y="348" xlink:href="#p" />
<use x="468" y="360" xlink:href="#p" />
<use x="468" y="384" xlink:href="#p" />
<use x="468" y="396" xlink:href="#p" />
<use x="468" y="432" xlink:href="#p" />
<use x="468" y="480" xlink:href="#p" />
<use x="468" y="492" xlink:href="#p" />
<use x="480" y="48" xlink:href="#p" />
<use x="480" y="72" xlink:href="#p" />
<use x="480" y="84" xlink:href="#p" />
<use x="480" y="96" xlink:href="#p" />
<use x="480" y="120" xlink:href="#p" />
<use x="480" y="240" xlink:href="#p" />
<use x="480" y="264" xlink:href="#p" />
<use x="480" y="312" xlink:href="#p" />
<use x="480" y="384" xlink:href="#p" />
<use x="480" y="408" xlink:href="#p" />
<use x="480" y="432" xlink:href="#p" />
<use x="480" y="444" xlink:href="#p" />
<use x="480" y="456" xlink:href="#p" />
<use x="480" y="468" xlink:href="#p" />
<use x="480" y="480" xlink:href="#p" />
<use x="480" y="504" xlink:href="#p" />
<use x="480" y="516" xlink:href="#p" />
<use x="480" y="528" xlink:href="#p" />
<use x="492" y="48" xlink:href="#p" />
<use x="492" y="72" xlink:href="#p" />
<use x="492" y="84" xlink:href="#p" />
<use x="492" y="96" xlink:href="#p" />
<use x="492" y="120" xlink:href="#p" />
<use x="492" y="216" xlink:href="#p" />
<use x="492" y="240" xlink:href="#p" />
<use x="492" y="312" xlink:href="#p" />
<use x="492" y="348" xlink:href="#p" />
<use x="492" y="360" xlink:href="#p" />
<use x="492" y="384" xlink:href="#p" />
<use x="492" y="396" xlink:href="#p" />
<use x="492" y="408" xlink:href="#p" />
<use x="492" y="420" xlink:href="#p" />
<use x="492" y="468" xlink:href="#p" />
<use x="492" y="480" xlink:href="#p" />
<use x="492" y="492" xlink:href="#p" />
<use x="492" y="528" xlink:href="#p" />
<use x="504" y="48" xlink:href="#p" />
<use x="504" y="72" xlink:href="#p" />
<use x="504" y="84" xlink:href="#p" />
<use x="504" y="96" xlink:href="#p" />
<use x="504" y="120" xlink:href="#p" />
<use x="504" y="156" xlink:href="#p" />
<use x="504" y="168" xlink:href="#p" />
<use x="504" y="180" xlink:href="#p" />
<use x="504" y="192" xlink:href="#p" />
<use x="504" y="204" xlink:href="#p" />
<use x="504" y="216" xlink:href="#p" />
<use x="504" y="240" xlink:href="#p" />
<use x="504" y="252" xlink:href="#p" />
<use x="504" y="288" xlink:href="#p" />
<use x="504" y="300" xlink:href="#p" />
<use x="504" y="324" xlink:href="#p" />
<use x="504" y="384" xlink:href="#p" />
<use x="504" y="396" xlink:href="#p" />
<use x="504" y="408" xlink:href="#p" />
<use x="504" y="444" xlink:href="#p" />
<use x="504" y="456" xlink:href="#p" />
<use x="504" y="468" xlink:href="#p" />
<use x="504" y="492" xlink:href="#p" />
<use x="504" y="504" xlink:href="#p" />
<use x="516" y="48" xlink:href="#p" />
<use x="516" y="120" xlink:href="#p" />
<use x="516" y="156" xlink:href="#p" />
<use x="516" y="192" xlink:href="#p" />
<use x="516" y="240" xlink:href="#p" />
<use x="516" y="300" xlink:href="#p" />
<use x="516" y="312" xlink:href="#p" />
<use x="516" y="336" xlink:href="#p" />
<use x="516" y="348" xlink:href="#p" />
<use x="516" y="360" xlink:href="#p" />
<use x="516" y="372" xlink:href="#p" />
<use x="516" y="384" xlink:href="#p" />
<use x="516" y="420" xlink:href="#p" />
<use x="516" y="456" xlink:href="#p" />
<use x="516" y="480" xlink:href="#p" />
<use x="516" y="504" xlink:href="#p" />
<use x="516" y="516" xlink:href="#p" />
<use x="516" y="528" xlink:href="#p" />
<use x="528" y="48" xlink:href="#p" />
<use x="528" y="60" xlink:href="#p" />
<use x="528" y="72" xlink:href="#p" />
<use x="528" y="84" xlink:href="#p" />
<use x="528" y="96" xlink:href="#p" />
<use x="528" y="108" xlink:href="#p" />
<use x="528" y="120" xlink:href="#p" />
<use x="528" y="156" xlink:href="#p" />
<use x="528" y="180" xlink:href="#p" />
<use x="528" y="216" xlink:href="#p" />
<use x="528" y="252" xlink:href="#p" />
<use x="528" y="264" xlink:href="#p" />
<use x="528" y="288" xlink:href="#p" />
<use x="528" y="324" xlink:href="#p" />
<use x="528" y="336" xlink:href="#p" />
<use x="528" y="360" xlink:href="#p" />
<use x="528" y="372" xlink:href="#p" />
<use x="528" y="384" xlink:href="#p" />
<use x="528" y="396" xlink:href="#p" />
<use x="528" y="408" xlink:href="#p" />
<use x="528" y="420" xlink:href="#p" />
<use x="528" y="444" xlink:href="#p" />
<use x="528" y="480" xlink:href="#p" />
<use x="528" y="492" xlink:href="#p" />
<use x="528" y="504" xlink:href="#p" />
</g>
</svg>